<?xml version="1.0" encoding="UTF-8" standalone="no"?>
<!-- Generator: Adobe Illustrator 15.1.0, SVG Export Plug-In  -->

<svg
   xmlns:dc="http://purl.org/dc/elements/1.1/"
   xmlns:cc="http://creativecommons.org/ns#"
   xmlns:rdf="http://www.w3.org/1999/02/22-rdf-syntax-ns#"
   xmlns:svg="http://www.w3.org/2000/svg"
   xmlns="http://www.w3.org/2000/svg"
   xmlns:sodipodi="http://sodipodi.sourceforge.net/DTD/sodipodi-0.dtd"
   xmlns:inkscape="http://www.inkscape.org/namespaces/inkscape"
   version="1.1"
   x="0px"
   y="0px"
   width="207px"
   height="207px"
   viewBox="-0.976 -0.977 207 207"
   overflow="visible"
   enable-background="new -0.976 -0.977 207 207"
   xml:space="preserve"
   id="svg2"
   inkscape:version="0.48.4 r9939"
   sodipodi:docname="phplist-coin-black1.svg"><metadata
     id="metadata12"><rdf:RDF><cc:Work
         rdf:about=""><dc:format>image/svg+xml</dc:format><dc:type
           rdf:resource="http://purl.org/dc/dcmitype/StillImage" /><dc:title></dc:title></cc:Work></rdf:RDF></metadata><sodipodi:namedview
     pagecolor="#ffffff"
     bordercolor="#666666"
     borderopacity="1"
     objecttolerance="10"
     gridtolerance="10"
     guidetolerance="10"
     inkscape:pageopacity="0"
     inkscape:pageshadow="2"
     inkscape:window-width="1301"
     inkscape:window-height="744"
     id="namedview10"
     showgrid="false"
     inkscape:zoom="1.1400966"
     inkscape:cx="-66.661017"
     inkscape:cy="103.5"
     inkscape:window-x="65"
     inkscape:window-y="24"
     inkscape:window-maximized="1"
     inkscape:current-layer="svg2" /><defs
     id="defs4" /><path
     d="M 103.5 1 C 69.10729 1 38.686356 17.947267 20.09375 43.9375 L 87.28125 111.8125 L 111.96875 87.1875 L 97.9375 73.1875 L 97.71875 72.84375 C 94.55075 68.48675 93 63.641 93 58 C 93 43.664 104.664 32 119 32 C 133.337 32 145 43.664 145 58 C 145 64.189 142.887 69.77375 138.75 74.59375 L 138.5 74.875 L 126.125 87.1875 L 192.84375 153.78125 C 201.2199 138.92748 206 121.76825 206 103.5 C 206 46.890813 160.10919 1 103.5 1 z M 119 42 C 110.178 42 103 49.178 103 58 C 103 61.367 103.83275 64.1465 105.59375 66.6875 L 119.0625 80.125 L 131.28125 67.9375 C 133.77325 64.9775 135 61.726 135 58 C 135 49.178 127.822 42 119 42 z M 14.46875 52.6875 C 5.9062403 67.662657 1 85.0141 1 103.5 C 1 160.10919 46.890813 206 103.5 206 C 138.2538 206 168.96438 188.70428 187.5 162.25 L 119.0625 94.25 L 94.3125 118.90625 L 107.5625 132.34375 C 111.1195 136.99175 113 142.399 113 148 C 113.001 162.336 101.336 174 87 174 C 72.664 174 61 162.337 61 148 C 61 143.144 62.31125 138.43925 64.78125 134.40625 L 65.09375 133.90625 L 80.1875 118.84375 L 14.46875 52.6875 z M 87.21875 125.96875 L 73.03125 140.125 C 71.70725 142.479 71 145.18 71 148 C 71 156.822 78.178 164 87 164 C 95.822 164 103 156.822 103 148 C 103 144.66 101.9345 141.52125 99.8125 138.65625 L 87.21875 125.96875 z "
     transform="translate(-0.976,-0.977)"
     id="circle6"
     style="fill:#ffffff;fill-opacity:1" /></svg>