<svg xmlns="http://www.w3.org/2000/svg" viewBox="0 0 1000 312.1"><defs><style>.cls-1{fill:#fff;}</style></defs><title>New_Logo_White</title><g id="Layer_2" data-name="Layer 2"><g id="Layer_1-2" data-name="Layer 1"><path class="cls-1" d="M989.49,84.87c0-.45-.07-1.23-.07-2.31A6.67,6.67,0,0,0,989,80a3.29,3.29,0,0,0-1.55-1.6l-.41-.21.41-.22a3.38,3.38,0,0,0,2.06-3.11,4.3,4.3,0,0,0-1.65-3.6,7.62,7.62,0,0,0-4.75-1.31h-5.51V86h2.6V79.43h3.48a3.34,3.34,0,0,1,2.42.73,3.11,3.11,0,0,1,.75,2.32,28.3,28.3,0,0,0,.12,3.09L987,86h2.71l-.14-.63C989.54,85.23,989.51,85.05,989.49,84.87ZM986.9,74.79a2.1,2.1,0,0,1-1.15,1.87,5.25,5.25,0,0,1-2.71.65h-2.87V72h3.13a4.79,4.79,0,0,1,2.78.65A2.59,2.59,0,0,1,986.9,74.79Z"/><path class="cls-1" d="M997.85,69.84a15.66,15.66,0,0,0-6-5.87,16.85,16.85,0,0,0-16.47,0,15.66,15.66,0,0,0-6,5.87,16.32,16.32,0,0,0,0,16.21,15.82,15.82,0,0,0,6,5.89,16.75,16.75,0,0,0,16.42,0,15.71,15.71,0,0,0,6-5.88,15.92,15.92,0,0,0,2.19-8.14A16.09,16.09,0,0,0,997.85,69.84ZM983.64,91.91A13.93,13.93,0,0,1,976.42,90a13.49,13.49,0,0,1-5.06-5.14,14,14,0,0,1-1.78-6.89,13.83,13.83,0,0,1,1.87-7,13.41,13.41,0,0,1,5.13-5.06A14.19,14.19,0,0,1,983.64,64a14,14,0,0,1,7.18,1.92,13.63,13.63,0,0,1,5.07,5.1,14.23,14.23,0,0,1,0,13.82A13.61,13.61,0,0,1,990.83,90,13.93,13.93,0,0,1,983.64,91.91Z"/><path class="cls-1" d="M553.23,120.8q10.37,10.13,10.37,30v52H537.29v-47.9q0-10.78-4.72-16.11t-13.66-5.31q-9.94,0-15.85,6.16t-5.9,18.3v44.86H470.85v-98.5A26.31,26.31,0,0,1,497.16,78h0v43.52a34.84,34.84,0,0,1,12.64-8A45.69,45.69,0,0,1,526,110.68Q542.85,110.68,553.23,120.8Z"/><path class="cls-1" d="M716,85.8v94.71h59.19v22.26h-86.5V113.13A27.32,27.32,0,0,1,716,85.8Z"/><path class="cls-1" d="M789.73,105.6A16.15,16.15,0,0,1,801.53,78a16.15,16.15,0,0,1,11.8,4.45,14.92,14.92,0,0,1,4.56,11.13,16.54,16.54,0,0,1-4.56,12,15.65,15.65,0,0,1-11.8,4.73A15.81,15.81,0,0,1,789.73,105.6Z"/><rect class="cls-1" x="788.38" y="123.41" width="26.31" height="79.36"/><path class="cls-1" d="M669.66,131.51a41.84,41.84,0,0,0-16.28-16.36,46.18,46.18,0,0,0-23-5.82q-18.72,0-28.5,11.81V109.33c-13.88,0-25.13,12.6-25.13,26.48v98.33h26.31V191.81q9.94,11,27.32,11a46.18,46.18,0,0,0,23-5.82,41.78,41.78,0,0,0,16.28-16.36q5.9-10.53,5.9-24.54T669.66,131.51Zm-26.84,40.66q-6.44,6.68-16.66,6.67t-16.68-6.54a23.74,23.74,0,0,1,0-32.49q6.43-6.56,16.68-6.56c6.81,0,12.37,2.11,16.66,6.29a21,21,0,0,1,4.58,6.56,30.93,30.93,0,0,1,1.52,10,33.56,33.56,0,0,1-.64,6.59A22.32,22.32,0,0,1,642.82,172.17Z"/><path class="cls-1" d="M902.53,158.42a27.28,27.28,0,0,0-12.31-7.68,157.43,157.43,0,0,0-18.21-4,81.7,81.7,0,0,1-14.5-3.2c-3-1.14-4.56-3.1-4.56-5.91q0-3.71,4.22-6.07t12.64-2.36A52.47,52.47,0,0,1,896,136l8.76-18.71A53,53,0,0,0,889,111.45a88.14,88.14,0,0,0-19.15-2.12q-13,0-22.51,3.71t-14.5,10.38a24.88,24.88,0,0,0-5,15.26q0,10.29,5.31,15.85a28.45,28.45,0,0,0,12.58,7.76,132.75,132.75,0,0,0,18.37,3.88c6.29.79,11,1.74,14,2.88s4.54,3,4.54,5.55q0,8.28-16.69,8.26a61.54,61.54,0,0,1-16.86-2.44,57.55,57.55,0,0,1-12.41-5l-8.76,18.93A63.16,63.16,0,0,0,842.84,200a88.21,88.21,0,0,0,22.08,2.79q13.32,0,23-3.63t14.76-10.2a24,24,0,0,0,5-15Q907.75,164,902.53,158.42Z"/><path class="cls-1" d="M457.71,156.05q0-14-5.91-24.54a41.82,41.82,0,0,0-16.27-16.36,46.22,46.22,0,0,0-23-5.82q-18.72,0-28.5,11.81V109.33c-13.87,0-25.12,12.6-25.12,26.48v98.33h26.3V191.81q10,11,27.32,11a46.22,46.22,0,0,0,23-5.82,41.75,41.75,0,0,0,16.27-16.36Q457.71,170.06,457.71,156.05Zm-72.85,0v-.11a22.22,22.22,0,0,1,6.43-16.13q6.43-6.56,16.67-6.56c6.82,0,12.38,2.11,16.66,6.29a20.6,20.6,0,0,1,6.15,12.05,33.61,33.61,0,0,1,.27,4q-.09,10-6.42,16.61T408,178.84q-10.24,0-16.67-6.54a22.25,22.25,0,0,1-6.43-16.2Z"/><path class="cls-1" d="M976.55,178.48a16.86,16.86,0,0,1-10.61,3.39c-3.6,0-6.38-1.05-8.34-3.13s-3-5-3-8.85V137.48l.52.08h20.69a20.32,20.32,0,0,0-6-14.4l-.06-.06a22.6,22.6,0,0,0-15.19-5.85v-.06l.47-22.93h-26.3l-.48,22.93v.06h-3.87a10.12,10.12,0,1,0,0,20.23h3.87v32.75q0,16,8.85,24.29t25,8.25a48.55,48.55,0,0,0,11.9-1.42,27.2,27.2,0,0,0,9.52-4.31Z"/><path class="cls-1" d="M117.71,207.3l15.1-14.8,15.9,15.83A22.69,22.69,0,1,1,116,209C116.57,208.4,117.08,207.9,117.71,207.3Z"/><path class="cls-1" d="M194.78,104.33l-15.56,15.33L162.59,103a22.66,22.66,0,1,1,32.95.53Z"/><path class="cls-1" d="M179.18,146.94,281.34,249.07A156.06,156.06,0,0,1,20,79.5l99.2,99.21-14.75,14.53-2.23,2.18a41.42,41.42,0,0,0-11.35,26.24l0,.18c-1,8.82,2.12,18.49,7,25.76a42,42,0,0,0,74.76-10.08c1.58-4.72,2.76-10.38,2.09-15.35a41.94,41.94,0,0,0-12.24-27.64l-15.75-15.71Z"/><path class="cls-1" d="M312.08,156a155.07,155.07,0,0,1-20,76.45l-99.16-99.1,15.29-15,1.2-1.2a38.92,38.92,0,0,0,3.88-4.6,42,42,0,0,0-14.22-61.84c-20.64-11-47.05-2.41-57.41,18.49a42.26,42.26,0,0,0,2.27,41.28,36.08,36.08,0,0,0,4.81,6.09l1.87,1.85,14.83,14.84-32.39,31.89L30.83,62.92A156,156,0,0,1,312.08,156Z"/></g></g></svg>