<?xml version="1.0" encoding="UTF-8" standalone="no"?>
<!-- Created with Inkscape (http://www.inkscape.org/) -->

<svg
   xmlns:dc="http://purl.org/dc/elements/1.1/"
   xmlns:cc="http://creativecommons.org/ns#"
   xmlns:rdf="http://www.w3.org/1999/02/22-rdf-syntax-ns#"
   xmlns:svg="http://www.w3.org/2000/svg"
   xmlns="http://www.w3.org/2000/svg"
   xmlns:sodipodi="http://sodipodi.sourceforge.net/DTD/sodipodi-0.dtd"
   xmlns:inkscape="http://www.inkscape.org/namespaces/inkscape"
   width="96mm"
   height="33mm"
   viewBox="0 0 340.15749 116.92913"
   id="svg4507"
   version="1.1"
   inkscape:version="0.91 r13725"
   sodipodi:docname="logo-nodomain-all-white.svg"
   inkscape:export-filename="/home/samtuke/pl/owncloud/Company internal/logos/logo-nodomain-tagline-black-pre-print.png"
   inkscape:export-xdpi="300.03751"
   inkscape:export-ydpi="300.03751">
  <defs
     id="defs4509" />
  <sodipodi:namedview
     id="base"
     pagecolor="#ffffff"
     bordercolor="#666666"
     borderopacity="1.0"
     inkscape:pageopacity="0.0"
     inkscape:pageshadow="2"
     inkscape:zoom="2.8"
     inkscape:cx="145.55621"
     inkscape:cy="35.700445"
     inkscape:document-units="px"
     inkscape:current-layer="layer1"
     showgrid="false"
     fit-margin-top="0"
     fit-margin-left="0"
     fit-margin-right="0"
     fit-margin-bottom="0"
     inkscape:window-width="3200"
     inkscape:window-height="1671"
     inkscape:window-x="0"
     inkscape:window-y="55"
     inkscape:window-maximized="1" />
  <metadata
     id="metadata4512">
    <rdf:RDF>
      <cc:Work
         rdf:about="">
        <dc:format>image/svg+xml</dc:format>
        <dc:type
           rdf:resource="http://purl.org/dc/dcmitype/StillImage" />
        <dc:title></dc:title>
      </cc:Work>
    </rdf:RDF>
  </metadata>
  <g
     inkscape:label="Layer 1"
     inkscape:groupmode="layer"
     id="layer1"
     transform="translate(-199.83231,-143.54717)">
    <path
       style="fill:#ffffff"
       d="m 259.12241,154.17715 a 48.661286,47.833892 0 0 0 -39.57514,20.06803 l 31.86482,31.63881 11.73357,-11.48632 -6.66433,-6.54002 -0.11208,-0.1506 c -1.50525,-2.03428 -2.23764,-4.30076 -2.23764,-6.93292 0,-6.69133 5.54106,-12.13628 12.34622,-12.13628 6.80516,0 12.34247,5.44495 12.34247,12.13628 0,2.88973 -0.99623,5.49397 -2.9586,7.74447 l -0.12317,0.13217 -5.86866,5.75051 31.64815,31.04027 a 48.661286,47.833892 0 0 0 6.26837,-23.43167 48.661286,47.833892 0 0 0 -48.66389,-47.83279 z m 7.35915,19.13531 c -4.19058,0 -7.59823,3.34794 -7.59823,7.46539 0.002,1.56989 0.39318,2.86396 1.229,4.05031 l 6.39913,6.27564 5.80888,-5.6881 c 1.18393,-1.38189 1.75575,-2.89874 1.75575,-4.63785 0,-4.11745 -3.40394,-7.46539 -7.59453,-7.46539 z m -49.59406,5.01242 a 48.661286,47.833892 0 0 0 -6.42525,23.68505 48.661286,47.833892 0 0 0 48.66016,47.83645 48.661286,47.833892 0 0 0 39.86276,-20.43892 l -32.47746,-31.71226 -11.7485,11.50471 6.2945,6.2646 c 1.68886,2.17153 2.58132,4.69957 2.58132,7.31481 -0.002,6.68945 -5.54106,12.13263 -12.34622,12.13263 -6.80708,0 -12.34247,-5.44496 -12.34247,-12.13629 0,-2.26742 0.61873,-4.45973 1.79309,-6.34173 l 0.14575,-0.23501 7.16865,-7.02105 -31.16627,-30.85299 z m 34.51339,34.1689 -6.74654,6.60244 c -0.62926,1.09798 -0.96005,2.36514 -0.96005,3.6831 0,4.1137 3.40958,7.46538 7.59826,7.46538 4.18867,0 7.59823,-3.34792 7.59823,-7.46538 0,-1.56049 -0.51253,-3.0238 -1.51666,-4.36245 l -5.97324,-5.92309 z"
       id="circle15"
       inkscape:connector-curvature="0" />
    <g
       id="g4147"
       transform="matrix(1.9126361,0,0,1.8801153,-171.74424,-241.66878)"
       style="fill:#ffffff">
      <path
         style="fill:#ffffff"
         inkscape:connector-curvature="0"
         d="m 263.24431,229.8573 c 1.53,-1.693 2.958,-2.438 4.997,-2.438 5.236,0 7.921,4.556 7.921,9.043 0,4.487 -2.754,9.315 -7.921,9.281 -2.144,0 -3.671,-0.714 -4.997,-2.176 l 0,7.955 -3.06,0 0,-23.627 3.06,0 0,1.962 z m 4.997,13.132 c 2.992,0 4.726,-3.06 4.726,-6.459 0,-3.332 -1.698,-6.323 -4.726,-6.323 -6.969,0 -6.969,12.782 0,12.782 z"
         id="path19" />
      <path
         style="fill:#ffffff"
         inkscape:connector-curvature="0"
         d="m 282.11331,229.8573 c 1.122,-2.057 2.89,-2.71 4.896,-2.71 4.861,0 6.527,3.468 6.527,7.445 l 0,10.403 -3.06,0 0,-10.403 c 0,-2.55 -0.852,-4.691 -3.47,-4.691 -2.992,0 -4.896,1.802 -4.896,4.691 l 0,10.403 -3.062,0 0,-24.546 3.062,0 0.003,9.408 0,0 z"
         id="path21" />
      <path
         style="fill:#ffffff"
         inkscape:connector-curvature="0"
         d="m 300.23531,229.8573 c 1.527,-1.693 2.957,-2.438 4.997,-2.438 5.233,0 7.922,4.556 7.922,9.043 0,4.487 -2.754,9.315 -7.922,9.281 -2.144,0 -3.672,-0.714 -4.997,-2.176 l 0,7.955 -3.062,0 0,-23.627 3.062,0 0,1.962 z m 4.997,13.132 c 2.99,0 4.726,-3.06 4.726,-6.459 0,-3.332 -1.7,-6.323 -4.726,-6.323 -6.969,0 -6.969,12.782 0,12.782 z"
         id="path23" />
      <path
         style="fill:#ffffff"
         inkscape:connector-curvature="0"
         d="m 316.80631,244.9953 0,-24.546 3.229,0 0,21.622 12.341,0 0,2.924 -15.57,0 z"
         id="path25" />
      <path
         style="fill:#ffffff"
         inkscape:connector-curvature="0"
         d="m 334.68031,223.8833 0,-3.434 3.4,0 0,3.434 -3.4,0 z m 0.17,21.112 0,-17.372 3.061,0 0,17.372 -3.061,0 z"
         id="path27" />
      <path
         style="fill:#ffffff"
         inkscape:connector-curvature="0"
         d="m 340.85431,239.0123 3.195,0 c 0.17,2.584 1.77,3.773 3.738,3.773 2.006,0 3.943,-0.918 3.943,-2.754 0,-0.884 -0.512,-1.428 -1.395,-1.835 -0.477,-0.204 -1.02,-0.374 -1.633,-0.545 -3.16,-0.781 -7.785,-1.121 -7.785,-5.371 0,-3.808 3.469,-4.861 6.562,-4.861 3.363,0 6.936,1.462 6.936,6.392 l -3.229,0 c 0,-2.958 -1.904,-3.672 -3.705,-3.672 -1.734,0 -3.332,0.646 -3.332,2.142 0,0.714 0.439,1.156 1.395,1.53 0.477,0.204 1.055,0.374 1.664,0.51 0.613,0.136 1.293,0.306 1.975,0.441 2.686,0.646 5.812,1.666 5.812,5.27 0,3.944 -3.807,5.474 -7.139,5.474 -3.5,-0.001 -6.934,-2.074 -7.002,-6.494 z"
         id="path29" />
      <path
         style="fill:#ffffff"
         inkscape:connector-curvature="0"
         d="m 359.38731,240.1683 0,-9.689 -3.398,0 0,-2.55 3.398,0 0,-4.521 3.062,0 0,4.521 4.113,0 0,2.55 -4.113,0 0,9.689 c 0,1.224 -0.035,2.753 1.562,2.753 0.309,0 0.613,-0.067 0.953,-0.102 0.34,-0.068 0.682,-0.136 1.6,-0.238 l 0,2.516 c -1.09,0.272 -1.805,0.408 -2.584,0.408 -4.253,0 -4.593,-2.21 -4.593,-5.337 z"
         id="path31" />
    </g>
  </g>
</svg>
