<?xml version="1.0" standalone="no"?>
<!DOCTYPE svg PUBLIC "-//W3C//DTD SVG 1.1//EN" "http://www.w3.org/Graphics/SVG/1.1/DTD/svg11.dtd" >
<svg xmlns="http://www.w3.org/2000/svg" xmlns:xlink="http://www.w3.org/1999/xlink" version="1.1">
<metadata></metadata>
<defs>
<font id="genlight" horiz-adv-x="1167" >
<font-face units-per-em="2048" ascent="1638" descent="-410" />
<missing-glyph horiz-adv-x="512" />
<glyph horiz-adv-x="0" />
<glyph horiz-adv-x="682" />
<glyph unicode=" "  horiz-adv-x="512" />
<glyph unicode="&#x09;" horiz-adv-x="512" />
<glyph unicode="&#xa0;" horiz-adv-x="512" />
<glyph unicode="!" horiz-adv-x="620" d="M315 1479h168l-26 -1129h-115zM317 0v176h164v-176h-164z" />
<glyph unicode="&#x22;" horiz-adv-x="575" d="M119 1016v463h106v-463h-106zM344 1016v463h107v-463h-107z" />
<glyph unicode="#" horiz-adv-x="1146" d="M145 459v92h201v317h-201v90h201v418h86v-418h309v418h88v-418h201v-90h-201v-317h201v-92h-201v-418h-88v418h-309v-418h-86v418h-201zM432 551h309v317h-309v-317z" />
<glyph unicode="$" horiz-adv-x="1157" d="M96 338v8h123q6 -255 305 -272v588q-88 31 -133.5 49.5t-106 53.5t-89.5 73.5t-50.5 99t-21.5 139.5q0 96 58 182t151 136.5t192 50.5v100h82v-100q166 0 281.5 -93t132.5 -249h-123q-4 115 -85.5 176.5t-205.5 67.5v-588q51 -15 89.5 -28t86.5 -33.5t83 -41t70.5 -50.5 t58 -63t36.5 -77t14 -94q0 -193 -118.5 -297.5t-319.5 -104.5v-110h-82v108q-89 4 -165.5 28t-135.5 68t-93 114t-34 159zM246 1059q0 -49 15.5 -89t40 -67.5t63 -51t74.5 -38t85 -29.5v559q-122 0 -200 -83.5t-78 -200.5zM606 74q131 10 223.5 83t92.5 195q0 53 -19.5 96.5 t-46.5 71.5t-75 54.5t-82.5 40t-92.5 32.5v-573z" />
<glyph unicode="%" horiz-adv-x="1843" d="M283 1061q0 74 21.5 143t61 123.5t102.5 87.5t140 33q102 0 178 -57t112 -143.5t36 -186.5q0 -75 -21 -143.5t-60.5 -123.5t-102.5 -87.5t-142 -32.5q-103 0 -178.5 56.5t-111 142.5t-35.5 188zM395 1061q0 -54 11 -103.5t35 -94t67 -71t100 -26.5q45 0 82 18t60.5 48 t40 69t23.5 79t7 81t-7 81t-23.5 79t-40 69t-60.5 48t-82 18q-57 0 -100 -26.5t-67 -71t-35 -94t-11 -103.5zM580 0l798 1448h119l-799 -1448h-118zM1114 356q0 100 36 186.5t112 143.5t178 57q77 0 140 -33t102.5 -87.5t61 -123.5t21.5 -143q0 -102 -35 -188t-110.5 -142.5 t-179.5 -56.5q-103 0 -179 56.5t-111.5 142.5t-35.5 188zM1227 356q0 -54 11 -103.5t35 -94t67 -71t100 -26.5q45 0 82 18t60.5 48t40 69t23.5 79t7 81t-7 81t-23.5 79t-40 69t-60.5 48t-82 18q-57 0 -100 -26.5t-67 -71t-35 -94t-11 -103.5z" />
<glyph unicode="&#x26;" horiz-adv-x="1474" d="M115 324q0 80 31 161t84.5 150t115.5 126.5t131 102.5q-8 10 -42.5 50t-46.5 55t-38 51.5t-36 60.5t-19.5 59.5t-9.5 69.5q0 126 97.5 212.5t225.5 86.5q83 0 158.5 -37.5t123.5 -107t48 -154.5q0 -46 -16 -89.5t-36 -73t-60 -66.5t-64 -55t-73 -53q-4 -3 -7 -5t-7 -5 t-7 -5l323 -350l195 328h151l-262 -418l395 -418h-190l-274 307q-96 -142 -128 -181q-89 -106 -200 -138q-67 -19 -154 -19q-104 0 -196.5 41.5t-152.5 124.5t-60 189zM256 326q0 -110 85 -173t200 -63q62 0 115.5 22.5t104.5 75.5t75.5 84.5t73.5 104.5q3 4 5 6.5t4.5 6.5 t4.5 7l-361 383q-122 -78 -214.5 -203t-92.5 -251zM428 1210q0 -17 2.5 -34t10.5 -35t12.5 -30.5t19.5 -32.5t19.5 -28t24.5 -29.5t23 -25.5t26 -27l22 -24q22 21 67.5 55t70.5 55.5t47 63t22 92.5q0 70 -60 123t-131 53q-70 0 -123 -53t-53 -123z" />
<glyph unicode="'" horiz-adv-x="462" d="M178 1016v463h107v-463h-107z" />
<glyph unicode="(" horiz-adv-x="544" d="M156 641q0 138 32 277q34 149 70 247q38 104 100 267l19 47h102q-180 -460 -180 -838t180 -838h-104q-16 47 -49 131q-10 25 -54 144q-17 46 -43 131q-33 109 -41 147q-32 174 -32 285z" />
<glyph unicode=")" horiz-adv-x="563" d="M90 -197q180 460 180 838t-180 838h103q136 -349 182 -529q39 -160 39 -309q0 -63 -13 -149q-9 -64 -14 -95.5t-16.5 -80.5t-30.5 -107q-26 -85 -43 -131q-3 -7 -11.5 -31.5t-19 -53.5t-22.5 -59q-33 -84 -49 -131h-105z" />
<glyph unicode="*" horiz-adv-x="972" d="M238 1090v71h268l-135 234l63 35l135 -232l133 232l64 -35l-135 -234h268v-71h-268l135 -234l-64 -37l-133 234l-135 -234l-63 37l135 234h-268z" />
<glyph unicode="+" horiz-adv-x="1218" d="M188 680v74h451v452h74v-452h450v-74h-450v-453h-74v453h-451z" />
<glyph unicode="," horiz-adv-x="491" d="M121 -254l88 420h166l-148 -420h-106z" />
<glyph unicode="-" horiz-adv-x="659" d="M51 682v74h467v-74h-467z" />
<glyph unicode="." horiz-adv-x="495" d="M203 0v176h164v-176h-164z" />
<glyph unicode="/" horiz-adv-x="1132" d="M102 0l834 1448h94l-829 -1448h-99z" />
<glyph unicode="0" d="M113 709q0 74 4.5 141t18 143.5t35 140t58 123t84.5 100.5t117.5 66t153.5 25t153.5 -25t117.5 -66t84.5 -100.5t58 -123t35 -140t18 -143.5t4.5 -141t-4.5 -141t-18 -143.5t-35 -140t-58 -123.5t-84.5 -101t-117.5 -66t-153.5 -25t-153.5 25t-117.5 66t-84.5 101 t-58 123.5t-35 140t-18 143.5t-4.5 141zM256 709q0 -617 328 -617q327 0 327 617q0 616 -327 616q-328 0 -328 -616z" />
<glyph unicode="1" d="M358 1194l326 223h127v-1417h-133v1278l-262 -172z" />
<glyph unicode="2" d="M139 0v139q79 72 152 142t185.5 188t192.5 217.5t139.5 207t59.5 179.5q0 118 -82 185t-202 67q-125 0 -206 -79t-81 -204h-143q0 185 121.5 295.5t308.5 110.5q186 0 307 -104.5t121 -288.5q0 -43 -15.5 -93t-39 -98t-63 -105t-76 -104.5t-90 -106.5t-93 -100.5 t-96.5 -97.5t-89.5 -86t-83.5 -78t-67 -63h731v-123h-891z" />
<glyph unicode="3" d="M109 375h143q-1 -130 98 -206.5t234 -76.5q142 0 238 81.5t96 221.5q0 60 -23 107t-65 76.5t-89.5 49.5t-108 29.5t-108.5 13t-102 3.5v129q46 0 84 1.5t88.5 8t90.5 17.5t80.5 31t68 47.5t44.5 68.5t17 92q0 79 -49 139.5t-119.5 89.5t-146.5 29q-123 0 -209.5 -70.5 t-98.5 -189.5h-143q0 89 39 163t103.5 121t145 73t165.5 26q117 0 219 -44t169.5 -134.5t67.5 -210.5q0 -62 -29.5 -117.5t-78 -95t-105.5 -67t-116 -40.5v-4q66 -14 127.5 -45t112.5 -75t81.5 -106t30.5 -132q0 -96 -43 -175.5t-113.5 -129.5t-157 -77.5t-178.5 -27.5 q-122 0 -225 47.5t-167.5 141.5t-67.5 217z" />
<glyph unicode="4" d="M72 330v129l622 958h176v-977h228v-110h-228v-330h-133v330h-665zM184 440h553v844h-4z" />
<glyph unicode="5" d="M127 348h143q4 -121 90 -188.5t211 -67.5q149 0 240.5 106.5t91.5 258.5q0 151 -91.5 252.5t-240.5 101.5q-66 0 -129 -25t-111 -75t-61 -115h-143v821h842v-123h-699v-510q58 69 142.5 109.5t173.5 40.5q200 0 328 -135.5t128 -337.5q0 -131 -56.5 -243t-162 -180.5 t-237.5 -68.5q-93 0 -173.5 22.5t-145 67t-102 118.5t-38.5 171z" />
<glyph unicode="6" d="M106 637q0 86 4 157.5t17 158t34.5 154t60 134t91 110t129.5 70.5t172 27q86 0 161.5 -23t135 -66.5t95 -114t36.5 -159.5h-143q-3 107 -88.5 173.5t-196.5 66.5q-71 0 -127.5 -22.5t-94 -58t-65 -90.5t-42 -107t-23 -121.5t-10.5 -121t-2 -116.5h4q97 232 360 232 q141 0 244 -65.5t153 -174.5t50 -248q0 -207 -120.5 -335t-326.5 -128q-115 0 -204.5 37.5t-146 99.5t-92.5 149.5t-50.5 180.5t-14.5 201zM274 432q0 -138 101 -239t239 -101q151 0 227.5 92.5t76.5 247.5q0 99 -31 181.5t-101.5 138t-171.5 55.5q-160 0 -250 -106 t-90 -269z" />
<glyph unicode="7" d="M133 1294v123h903v-123l-551 -1294h-155l567 1294h-764z" />
<glyph unicode="8" d="M100 377q0 135 88 232t224 126v4q-129 15 -209 107.5t-80 224.5q0 92 40 165.5t106 118.5t147 69t168 24q86 0 167.5 -24.5t148 -70.5t107 -120t40.5 -164q0 -124 -81.5 -213.5t-205.5 -116.5v-2q133 -34 221 -127.5t88 -224.5q0 -95 -41.5 -175t-110.5 -132t-155 -80.5 t-178 -28.5q-73 0 -142.5 17t-131.5 51.5t-109 82.5t-74 114.5t-27 142.5zM244 385q0 -139 98 -216t242 -77q91 0 167 31.5t125.5 100t49.5 161.5q0 91 -50 159.5t-126.5 101t-165.5 32.5q-142 0 -241 -77.5t-99 -215.5zM252 1065q0 -87 50.5 -148.5t123.5 -88.5t158 -27 q62 0 119.5 16t105.5 47t77 83t29 118q0 86 -50.5 149t-124 92t-156.5 29q-84 0 -158 -29t-124 -92t-50 -149z" />
<glyph unicode="9" d="M106 975q0 204 125.5 338.5t329.5 134.5q123 0 215 -40t146 -104t86.5 -159t43.5 -188t11 -209q0 -78 -5.5 -149.5t-20.5 -151.5t-38.5 -147t-63 -129.5t-90.5 -106t-123.5 -69.5t-160.5 -26q-188 0 -311.5 98t-138.5 281h143q3 -123 91 -189.5t216 -66.5q65 0 119 22 t90.5 57.5t64 87.5t43.5 105t26 116.5t13 116.5t3 110v55h-5q-114 -217 -354 -217q-194 0 -324.5 119t-130.5 311zM250 975q0 -141 85.5 -229.5t225.5 -88.5q148 0 241 85.5t93 232.5q0 350 -334 350q-152 0 -231.5 -97.5t-79.5 -252.5z" />
<glyph unicode=":" horiz-adv-x="471" d="M203 0v176h164v-176h-164zM203 852v176h164v-176h-164z" />
<glyph unicode=";" horiz-adv-x="520" d="M160 -254l88 420h166l-148 -420h-106zM219 852v176h164v-176h-164z" />
<glyph unicode="&#x3c;" horiz-adv-x="1255" d="M164 461v108l1024 457v-131l-862 -381l862 -403v-131z" />
<glyph unicode="=" horiz-adv-x="1232" d="M164 254v123h1024v-123h-1024zM164 651v123h1024v-123h-1024z" />
<glyph unicode="&#x3e;" horiz-adv-x="1226" d="M164 2v131l862 381l-862 404v131l1024 -482v-108z" />
<glyph unicode="?" horiz-adv-x="950" d="M68 1323q172 186 440 186q176 0 269 -97t93 -273q0 -85 -40.5 -162.5t-98 -135t-114.5 -111.5t-97.5 -116t-40.5 -125v-143h-123v143q0 56 21 108.5t54.5 93.5t74.5 81t81.5 80.5t74 82t54.5 94.5t21 110q0 112 -59 179.5t-170 67.5q-105 0 -185 -33t-153 -108zM336 0 v176h164v-176h-164z" />
<glyph unicode="@" horiz-adv-x="1654" d="M82 731q0 346 221 561q220 217 541 217q294 0 497 -182t203 -459q0 -230 -151 -413q-150 -181 -322 -181q-61 0 -109 28.5t-65 78.5q-102 -102 -244 -102q-135 0 -206.5 85.5t-71.5 227.5q0 101 37 207t100.5 195.5t160 146.5t204.5 57q74 0 135.5 -35.5t91.5 -97.5 l31 94h135l-205 -614q-25 -73 -25 -105q0 -50 60 -53q77 -2 153.5 75.5t123 192.5t44.5 219q-3 244 -170 386q-170 147 -407 147q-278 0 -459 -199q-180 -195 -180 -477q0 -278 182 -469q184 -190 457 -190q161 0 307.5 73t239.5 203h118q-94 -174 -278 -276 q-183 -103 -387 -103q-326 0 -545 219q-217 220 -217 543zM528 602q6 -195 156 -201q55 -1 117 51.5t109.5 130t78.5 167.5t29 159q-2 77 -36 121t-101 45q-72 1 -140 -45.5t-114 -117t-73.5 -154t-25.5 -156.5z" />
<glyph unicode="A" horiz-adv-x="1368" d="M18 0l586 1479h156l590 -1479h-146l-157 399h-736l-155 -399h-138zM354 522h645l-319 834z" />
<glyph unicode="B" horiz-adv-x="1361" d="M205 0v1479h428q71 0 134 -12t122 -40t102 -71t68.5 -109.5t25.5 -150.5q0 -63 -19.5 -126t-70 -120.5t-123.5 -75.5v-4q148 -24 242 -125.5t94 -249.5q0 -103 -37.5 -180.5t-104 -123.5t-150 -68.5t-181.5 -22.5h-530zM338 123h315q412 0 412 272q0 61 -15.5 109.5 t-39.5 80.5t-63.5 55t-77 35.5t-91.5 19.5t-95 8.5t-99 1.5h-246v-582zM338 827h246q64 0 112.5 5.5t97 22.5t79.5 46t50 78.5t19 116.5q0 124 -81.5 192t-227.5 68h-295v-529z" />
<glyph unicode="C" horiz-adv-x="1366" d="M123 739q0 128 21.5 239.5t70 210t121 169t181 111t243.5 40.5q190 0 324 -92.5t184 -269.5h-144q-32 121 -130 180t-234 59q-112 0 -199 -36t-141.5 -96t-90 -145t-49.5 -175.5t-14 -194.5q0 -100 15.5 -190t52 -175t92 -146.5t141 -98.5t193.5 -37q131 0 234.5 78 t129.5 207h144q-30 -180 -177.5 -294t-330.5 -114q-132 0 -239.5 41.5t-180.5 112.5t-122.5 169.5t-72 210t-22.5 236.5z" />
<glyph unicode="D" horiz-adv-x="1478" d="M184 0v1479h342q78 0 153 -9t158 -32.5t155 -59.5t138 -94.5t113 -133.5t75 -180.5t28 -230.5q0 -128 -25.5 -234t-69.5 -181.5t-107.5 -133t-133.5 -93t-154.5 -58t-163 -31t-166.5 -8.5h-342zM317 123h209q75 0 140.5 6.5t136 24.5t127 47t108.5 76.5t87.5 110.5 t56 152.5t20.5 198.5q0 106 -23.5 195t-62 151.5t-94 111t-114.5 78t-127.5 48.5t-129.5 26t-125 7h-209v-1233z" />
<glyph unicode="E" horiz-adv-x="1247" d="M205 0v1479h868v-123h-735v-531h696v-123h-696v-579h776v-123h-909z" />
<glyph unicode="F" horiz-adv-x="1183" d="M195 0v1479h876v-123h-743v-522h702v-123h-702v-711h-133z" />
<glyph unicode="G" horiz-adv-x="1484" d="M133 727q0 113 26 224.5t79 212t127.5 177.5t179 122.5t225.5 45.5q92 0 180 -25.5t162 -73t122.5 -124.5t55.5 -172h-151q-12 88 -68.5 151.5t-134 92t-166.5 28.5q-98 0 -180.5 -38.5t-138.5 -102t-95 -146.5t-57 -172t-18 -179q0 -98 20 -191.5t63 -178t104.5 -148 t149.5 -101t193 -37.5q33 0 88.5 8.5t117.5 24.5t106 45.5t44 65.5v395h-397v123h530v-570q0 -53 -59 -97t-143 -68t-161 -37t-126 -13q-158 0 -288 61t-214.5 165.5t-130 241t-45.5 290.5z" />
<glyph unicode="H" horiz-adv-x="1482" d="M205 0v1479h133v-650h807v650h133v-1479h-133v707h-807v-707h-133z" />
<glyph unicode="I" horiz-adv-x="501" d="M184 0v1485h133v-1485h-133z" />
<glyph unicode="J" horiz-adv-x="1032" d="M31 365h143q5 -54 21 -101t43.5 -86.5t72.5 -62.5t101 -23q87 0 147.5 27.5t93.5 79.5t47.5 115.5t14.5 146.5v1018h133v-1018q0 -107 -26.5 -195.5t-79 -155.5t-137 -104t-193.5 -37q-111 0 -196 55t-130 143t-55 198z" />
<glyph unicode="K" horiz-adv-x="1249" d="M215 0v1479h131v-703l621 703h168l-631 -709l735 -770h-182l-711 772v-772h-131z" />
<glyph unicode="L" horiz-adv-x="1081" d="M205 0v1479h133v-1356h743v-123h-876z" />
<glyph unicode="M" horiz-adv-x="1947" d="M205 0v1479h213l555 -1289l567 1289h203v-1479h-133v1366h-4l-566 -1366h-133l-565 1360h-4v-1360h-133z" />
<glyph unicode="N" horiz-adv-x="1472" d="M184 0v1479h152l815 -1301h4v1301h133v-1479h-168l-798 1278h-5v-1278h-133z" />
<glyph unicode="O" horiz-adv-x="1585" d="M133 739q0 127 24.5 240.5t76.5 211t128.5 168t186.5 110.5t244 40q133 0 243 -40.5t186 -111t128.5 -168t77 -210.5t24.5 -240t-24.5 -240t-77 -210.5t-128.5 -168t-186 -111t-243 -40.5q-134 0 -244 40t-186.5 110.5t-128.5 168t-76.5 211t-24.5 240.5zM276 733 q0 -98 19 -189.5t60 -174t100 -144t146 -97.5t192 -36q108 0 196.5 37.5t147 100t98 148t57 178.5t17.5 194q0 123 -31 234.5t-91.5 202.5t-162 145t-231.5 54q-108 0 -196 -37t-146.5 -99t-98.5 -146.5t-58 -177t-18 -193.5z" />
<glyph unicode="P" horiz-adv-x="1251" d="M205 0v1479h370q605 0 605 -418q0 -88 -26 -157t-70.5 -112.5t-105.5 -75t-130.5 -44.5t-144.5 -22q-64 -8 -128 -8h-21q-44 1 -87 1h-56h-73v-643h-133zM338 766h324q374 0 374 295t-374 295h-324v-590z" />
<glyph unicode="Q" horiz-adv-x="1658" d="M137 739q0 120 27.5 233t83.5 210.5t134.5 170.5t187.5 114.5t235 41.5q157 0 285 -61.5t209.5 -166t125 -240t43.5 -287.5q0 -191 -68 -364t-206 -277l4 -4q13 2 26 2q22 0 44 -5q37 -6 64.5 -15.5t66 -31.5t59 -35.5t60.5 -42t55 -38.5l-68 -107q-24 16 -81.5 60 t-92 67t-88.5 44.5t-104 21.5q-58 0 -168 -30t-166 -30q-126 0 -235 41.5t-187.5 114.5t-134.5 170.5t-83.5 210.5t-27.5 233zM285 737q0 -95 20 -186.5t62.5 -175t103 -146.5t146.5 -100t188 -37q103 0 189.5 37.5t146.5 100.5t102.5 146.5t62 175t19.5 187.5q0 95 -20 187 t-62.5 175.5t-102.5 146.5t-146.5 100.5t-188.5 37.5q-103 0 -189.5 -37.5t-146.5 -101t-102.5 -147.5t-62 -176t-19.5 -187z" />
<glyph unicode="R" horiz-adv-x="1351" d="M205 0v1479h418q65 0 118.5 -3.5t114 -13.5t106.5 -27t90 -46.5t72.5 -69.5t46 -97.5t17.5 -129.5q0 -124 -91 -221t-214 -111v-4q51 -15 94 -48t72.5 -74.5t55 -97.5t41 -109t29.5 -117.5t21.5 -113.5t17 -107t15.5 -89h-135q-10 49 -20.5 117.5t-17.5 116.5 t-18.5 107.5t-26 100.5t-36.5 86t-53 74.5t-72.5 54.5t-98.5 36.5t-128 11.5h-285v-705h-133zM338 827h301q60 0 104 3t94 12.5t84.5 29t64 49.5t44 77.5t14.5 109.5q0 248 -346 248h-360v-529z" />
<glyph unicode="S" horiz-adv-x="1259" d="M123 375h143q8 -299 371 -299q356 0 356 291q0 64 -28.5 113.5t-77 81.5t-111 58t-131.5 47.5t-138.5 45t-132 56.5t-111 75.5t-77 107.5t-28.5 148q0 93 40 170t107 126t150.5 76t173.5 27q91 0 170 -19.5t146 -59.5t110.5 -110t54.5 -163h-143q-1 64 -32 112t-82 73.5 t-107 37.5t-117 12q-66 0 -123.5 -15t-104 -45.5t-73.5 -82.5t-27 -121q0 -67 28.5 -119t77 -86.5t111 -62t132 -51t139 -47.5t132 -57t111 -75.5t77 -106.5t28.5 -146t-27.5 -150.5t-74.5 -115.5t-110.5 -79.5t-135 -47.5t-148.5 -15q-108 0 -197.5 22.5t-162 70 t-114.5 130t-44 193.5z" />
<glyph unicode="T" horiz-adv-x="1142" d="M31 1356v123h1081v-123h-469l-2 -1356h-131l-2 1356h-477z" />
<glyph unicode="U" horiz-adv-x="1490" d="M205 520v959h133v-957q0 -190 109.5 -310t297.5 -120t298 120t110 310v957h133v-959q0 -252 -144.5 -401.5t-396.5 -149.5t-396 149.5t-144 401.5z" />
<glyph unicode="V" horiz-adv-x="1267" d="M20 1479h146l475 -1346h4l469 1346h133l-534 -1479h-152z" />
<glyph unicode="W" horiz-adv-x="2050" d="M20 1479h142l344 -1346h4l432 1346h162l450 -1346h5l342 1346h129l-390 -1479h-182l-436 1341h-4l-424 -1341h-188z" />
<glyph unicode="X" horiz-adv-x="1251" d="M16 0l527 762l-500 717h174l418 -623l434 623h150l-512 -717l528 -762h-170l-449 662l-448 -662h-152z" />
<glyph unicode="Y" horiz-adv-x="1259" d="M20 1479h170l453 -715l453 715h143l-541 -836v-643h-133v639z" />
<glyph unicode="Z" horiz-adv-x="1095" d="M80 0v123l821 1233h-821v123h979v-123l-823 -1233h823v-123h-979z" />
<glyph unicode="[" horiz-adv-x="532" d="M174 -94v1675h281v-102h-148v-1471h148v-102h-281z" />
<glyph unicode="\" horiz-adv-x="911" d="M102 1479h88l619 -1479h-88z" />
<glyph unicode="]" horiz-adv-x="569" d="M115 8h147v1471h-147v102h280v-1675h-280v102z" />
<glyph unicode="^" horiz-adv-x="1282" d="M152 489l471 928h106l473 -928h-117l-411 803l-404 -803h-118z" />
<glyph unicode="_" horiz-adv-x="956" d="M0 -139h1024v-115h-1024v115z" />
<glyph unicode="`" horiz-adv-x="468" d="M41 1448h164l186 -293h-90z" />
<glyph unicode="a" horiz-adv-x="1011" d="M74 287q0 76 28 133t75 89t108.5 53.5t129.5 26.5q67 5 137 9q35 2 68.5 2t64.5 -2h60v38q-1 26 -1 46q-2 33 -6.5 73.5t-15 65.5t-30 51.5t-47 41t-68.5 23.5t-94 9q-115 0 -184.5 -66t-69.5 -169h-131q0 156 113 252t274 96q191 0 287 -89.5t96 -250.5v-719h-120v152 h-5q-37 -88 -130.5 -135.5t-196.5 -47.5q-147 0 -244.5 86.5t-97.5 231.5zM207 287q0 -97 59 -151t150 -54q76 0 150.5 27.5t126.5 83.5t52 126v166h-90q-7 0 -39 0.5t-50.5 0.5t-55.5 -2t-61 -5t-59 -10t-58 -16.5t-48.5 -25t-41 -35t-25.5 -46.5t-10 -59z" />
<glyph unicode="b" horiz-adv-x="1128" d="M133 0v1479h123v-607h4q51 88 148 137.5t204 49.5q83 0 154 -31.5t119.5 -84.5t83.5 -123t51 -145.5t16 -152.5t-16 -153.5t-50.5 -149t-83 -128t-119.5 -89t-155 -33.5q-219 0 -352 191h-4v-160h-123zM252 514q0 -82 23.5 -158.5t67 -138t113.5 -98.5t156 -37 q62 0 113 29.5t84 76.5t56 107t32.5 118t9.5 113q0 57 -9.5 113t-32 112t-55.5 99t-84 69.5t-114 26.5q-86 0 -156 -37t-113.5 -98.5t-67 -138t-23.5 -158.5z" />
<glyph unicode="c" horiz-adv-x="1026" d="M92 506q0 100 29 196.5t83 177t141 130t192 49.5q164 0 281 -93t126 -253h-133q-7 123 -77 178t-197 55q-64 0 -117.5 -27.5t-89 -71.5t-60 -102t-35 -116.5t-10.5 -116.5q0 -73 18.5 -146t54 -138t98 -105.5t141.5 -40.5q124 0 195.5 59t78.5 181h133 q-49 -353 -407 -353q-86 0 -159.5 30.5t-125 82t-88.5 120.5t-54.5 146t-17.5 158z" />
<glyph unicode="d" horiz-adv-x="1128" d="M92 520q0 79 15.5 155t49 146t82.5 122.5t120 84t157 31.5q107 0 204 -49.5t148 -137.5h4v607h123v-1479h-123v160h-4q-133 -191 -352 -191q-84 0 -155.5 33t-120 88t-82.5 127t-50 149t-16 154zM221 518q0 -56 9.5 -113.5t31.5 -116.5t55 -104t84.5 -73.5t114.5 -28.5 q86 0 155.5 37.5t112.5 100t65.5 138.5t22.5 158q0 81 -23 157t-66 137.5t-112.5 98.5t-154.5 37q-62 0 -113.5 -27.5t-84.5 -71.5t-55.5 -101.5t-32 -114.5t-9.5 -113z" />
<glyph unicode="e" horiz-adv-x="1163" d="M96 500q0 103 31.5 201.5t88.5 179t147 129.5t198 49q127 0 220 -45t146 -126t78 -181t25 -222h-794q7 -403 337 -403q110 0 200.5 70t115.5 176h129q-92 -359 -445 -359q-146 0 -256 74t-165.5 193.5t-55.5 263.5zM240 598h657q-11 157 -96 252.5t-238 95.5 q-141 0 -225.5 -100.5t-97.5 -247.5z" />
<glyph unicode="f" horiz-adv-x="681" d="M45 915v113h207q0 28 -1.5 72.5t-2.5 74.5v33v38q1 41 7 69t16 60t29 53t45.5 39.5t65.5 27t89 8.5q30 0 116 -22l-24 -101q-54 13 -94 13q-50 0 -76 -21q-47 -37 -47 -166v-178h217v-113h-217v-915h-123v915h-207z" />
<glyph unicode="g" horiz-adv-x="1128" d="M86 524q0 79 18 155.5t55.5 145t89 121t124.5 83t157 30.5q103 0 190.5 -51t147.5 -140h4v160h123v-932q0 -249 -109 -369t-356 -120q-71 0 -136.5 14t-125 43.5t-95.5 86t-36 132.5h133q8 -62 50.5 -100.5t94 -51t115.5 -12.5q90 0 166 30t126 96.5t50 158.5v193h-4 q-44 -89 -139 -141t-199 -52q-83 0 -155.5 29t-124.5 79t-89.5 116t-56 141.5t-18.5 154.5zM225 524q0 -73 17.5 -142.5t52.5 -130t96 -97.5t139 -37q83 0 150 34.5t108.5 92t63.5 130t22 152.5q0 105 -37.5 199t-118 157.5t-188.5 63.5q-63 0 -115 -26.5t-86.5 -69.5 t-58.5 -99t-34.5 -113t-10.5 -114z" />
<glyph unicode="h" horiz-adv-x="1138" d="M164 0v1479h123v-607h4q106 187 321 187q97 0 169 -33.5t113.5 -94.5t61 -137.5t19.5 -170.5v-623h-123v623q0 64 -12 118.5t-38 102t-74.5 75t-115.5 27.5q-148 0 -236.5 -87t-88.5 -236v-623h-123z" />
<glyph unicode="i" horiz-adv-x="450" d="M154 1325v154h143v-154h-143zM164 0v1028h123v-1028h-123z" />
<glyph unicode="j" horiz-adv-x="456" d="M88 -281q23 0 38.5 6.5t23.5 15.5t12 26t5 30t1 37l-2 1194h125v-1163q0 -62 -2.5 -95.5t-13 -70t-32 -53.5t-59.5 -28t-96 -11v112zM156 1325v154h143v-154h-143z" />
<glyph unicode="k" horiz-adv-x="1024" d="M174 0v1479h123v-914l526 463h158l-530 -471l542 -557h-155l-541 557v-557h-123z" />
<glyph unicode="l" horiz-adv-x="450" d="M164 0v1479h123v-1479h-123z" />
<glyph unicode="m" horiz-adv-x="1816" d="M154 0v1028h122v-156h5q52 92 137.5 139.5t193.5 47.5q114 0 201 -59.5t123 -165.5q62 99 158.5 162t205.5 63q88 0 152 -25t102.5 -66t61 -104t30 -127t7.5 -147v-590h-123v590q0 64 -5 113t-20 96.5t-40 78.5t-66.5 49.5t-98.5 18.5q-64 0 -116 -15.5t-86 -39 t-59.5 -57.5t-39 -66t-22 -68.5t-10.5 -61t-2 -48.5v-590h-123v590q0 65 -5 114t-20 96.5t-40 78t-66.5 49t-98.5 18.5q-88 0 -153.5 -29.5t-99 -69.5t-53.5 -94t-25 -90.5t-5 -72.5v-590h-122z" />
<glyph unicode="n" horiz-adv-x="1128" d="M154 0v1028h122v-156h5q106 187 321 187q85 0 149.5 -25t104.5 -67t65 -103.5t34.5 -126.5t9.5 -145v-592h-123v592q0 61 -4 106t-18.5 94.5t-39.5 81t-70 52t-108 20.5q-150 0 -238 -94.5t-88 -259.5v-592h-122z" />
<glyph unicode="o" horiz-adv-x="1146" d="M92 514q0 146 55 268.5t166 199.5t258 77q149 0 261 -77t167.5 -200t55.5 -270t-56 -269t-168 -198t-260 -76q-112 0 -204 44.5t-151.5 120.5t-91.5 173.5t-32 206.5zM227 514q0 -63 13.5 -124.5t41.5 -117t68 -98t97.5 -67.5t125.5 -25q83 0 151 38t109.5 100.5 t64 137.5t22.5 154t-22.5 154.5t-64 139t-109.5 102t-151 38.5q-85 0 -153 -37.5t-109 -100.5t-62.5 -138t-21.5 -156z" />
<glyph unicode="p" horiz-adv-x="1126" d="M133 -393v1421h123v-156h4q108 187 328 187q105 0 191.5 -45.5t141 -121.5t84 -171t29.5 -199t-30 -202.5t-85 -177.5t-141 -126q-84 -47 -186 -47h-4q-107 0 -184 46t-144 145h-4v-553h-123zM249 514q0 -112 36 -208t115.5 -160t187.5 -64q100 0 173.5 65t107.5 162 t34 209q0 110 -34 205.5t-107.5 159t-173.5 63.5q-108 0 -187.5 -64t-115.5 -160t-36 -208z" />
<glyph unicode="q" horiz-adv-x="1128" d="M92 522q0 102 28.5 197t80.5 171.5t135.5 122.5t185.5 46q107 0 199.5 -48.5t146.5 -133.5h4v151h123v-1419h-123v551h-4q-132 -191 -346 -191q-100 0 -183 47.5t-136 126t-82 176.5t-29 203zM223 518v-12q0 -105 31 -197q34 -98 104.5 -162.5t163.5 -64.5 q110 0 192.5 64t122.5 161t40 209q0 111 -40 207.5t-122.5 159.5t-192.5 63q-96 0 -165.5 -63.5t-101 -158t-32.5 -206.5z" />
<glyph unicode="r" horiz-adv-x="675" d="M154 0v1028h122v-151h5q32 85 105 133.5t165 48.5h84v-113q-93 0 -157 -15t-111 -51.5t-69 -101t-22 -160.5v-618h-122z" />
<glyph unicode="s" horiz-adv-x="985" d="M92 322h133q6 -112 78 -176t176 -64q67 0 125.5 20t101 68t42.5 117q0 59 -36 98t-93.5 59t-127 35.5t-139 34.5t-127 47.5t-93.5 84t-36 134.5q0 77 30.5 133t84 87t115.5 45t135 14q61 0 115.5 -11t105 -36.5t87 -64t58 -98.5t21.5 -136h-133q0 66 -23 113.5 t-61.5 72.5t-80.5 36t-89 11q-57 0 -107 -14.5t-87.5 -53.5t-37.5 -98q0 -45 28 -77.5t74 -49t105 -33t120 -28.5t120 -36t105 -55t74 -86t28 -128q0 -80 -34.5 -143t-92.5 -100t-127.5 -56t-145.5 -19q-102 0 -188.5 39.5t-143.5 121.5t-59 192z" />
<glyph unicode="t" horiz-adv-x="688" d="M51 915v113h205v272h123v-272h248v-113h-248v-641q0 -43 3.5 -72t15 -62t38 -50.5t68.5 -17.5q18 0 38 2.5t47 7t38 6.5v-100q-78 -19 -125 -19q-56 0 -97 8.5t-68 28t-43.5 42.5t-24.5 61t-10.5 74t-2.5 91v641h-205z" />
<glyph unicode="u" horiz-adv-x="1128" d="M164 365v663h123v-663q0 -121 60.5 -202t178.5 -81q93 0 165 29.5t116.5 94.5t44.5 159v663h123v-1028h-123v156h-4q-51 -91 -134.5 -139t-187.5 -48q-174 0 -268 109.5t-94 286.5z" />
<glyph unicode="v" horiz-adv-x="1028" d="M31 1028h135l354 -858l342 858h135l-407 -1028h-139z" />
<glyph unicode="w" horiz-adv-x="1703" d="M31 1028h135l307 -866h4l311 866h146l303 -858h4l297 858h135l-383 -1028h-116l-316 887h-4l-322 -887h-124z" />
<glyph unicode="x" horiz-adv-x="1028" d="M37 0l4 4l393 522l-379 502h164l301 -414l309 414h129l-368 -498l401 -530h-162l-329 446l-324 -446h-139z" />
<glyph unicode="y" horiz-adv-x="1024" d="M20 1028h150l346 -860l344 860h133l-567 -1421h-135l155 393z" />
<glyph unicode="z" horiz-adv-x="909" d="M82 0v113l600 802h-600v113h745v-113l-596 -802h596v-113h-745z" />
<glyph unicode="{" horiz-adv-x="593" d="M82 479v113q65 8 100 55.5t43 117t7 152t-0.5 163.5t12 147.5t52.5 107.5t114 41h102v-102q-66 4 -101.5 -22t-44.5 -74t-7 -109.5t3.5 -134t-4.5 -141.5t-38 -138t-91 -118q59 -37 90 -99t36.5 -130.5t3 -143t-4 -140t8 -117.5t46 -80.5t103.5 -23.5v-102h-102 q-73 0 -114.5 40.5t-52.5 106t-11 145.5t1.5 161.5t-6.5 150.5t-43.5 117t-101.5 57z" />
<glyph unicode="|" horiz-adv-x="450" d="M164 -471v2048h123v-2048h-123z" />
<glyph unicode="}" horiz-adv-x="573" d="M61 -197q66 -4 101.5 18.5t45 67.5t7 102.5t-4.5 128.5t4 141t38 145t92 135q-58 42 -89.5 106.5t-37.5 132.5t-4 141t3 136.5t-8.5 114t-45 78t-101.5 24.5v102h103q71 0 111 -40.5t50.5 -106.5t10.5 -146t-1 -161.5t8 -151t45.5 -117.5t103.5 -57v-113 q-58 -8 -93 -46.5t-45 -94.5t-13.5 -126t1 -141t-0.5 -138.5t-18.5 -119.5t-53.5 -84t-105 -32h-103v102z" />
<glyph unicode="~" horiz-adv-x="1351" d="M164 442q29 44 55.5 76.5t63 65.5t80 51t90.5 18q52 0 118.5 -23t119 -50.5t112.5 -50.5t100 -23q114 0 203 178l82 -70q-121 -223 -287 -223q-54 0 -148.5 37.5t-177.5 75t-110 37.5q-77 0 -132.5 -54t-101.5 -141z" />
<glyph unicode="&#xa9;" horiz-adv-x="1689" d="M49 741q0 158 61 300.5t164 244.5t246 162.5t301 60.5q157 0 299.5 -60.5t245 -163t163 -245t60.5 -299.5q0 -210 -102 -387.5t-279 -281t-387 -103.5q-158 0 -301.5 60.5t-246.5 163.5t-163.5 246.5t-60.5 301.5zM172 741q0 -187 82.5 -335t230.5 -231t336 -83 q140 0 260.5 48.5t204.5 134t132 206t48 260.5q0 281 -182 463t-463 182q-140 0 -260.5 -48t-206 -132t-134 -204.5t-48.5 -260.5zM430 748q0 196 112.5 318t307.5 122q140 0 240 -77.5t120 -213.5h-112q-18 84 -89.5 136t-158.5 52q-143 0 -220 -94.5t-77 -240.5 q0 -92 32.5 -169t101.5 -126t163 -49q90 0 163 55t85 141h112q-12 -134 -117.5 -216.5t-242.5 -82.5q-191 0 -305.5 125.5t-114.5 319.5z" />
<glyph unicode="&#xad;" horiz-adv-x="659" d="M51 682v74h467v-74h-467z" />
<glyph unicode="&#xae;" horiz-adv-x="1689" d="M49 741q0 209 103.5 386t281 279.5t387.5 102.5q209 0 385.5 -103t279.5 -279.5t103 -385.5q0 -210 -102.5 -387.5t-279.5 -281t-386 -103.5q-158 0 -301 61t-246 164t-164 246t-61 301zM172 741q0 -284 182.5 -466.5t466.5 -182.5q186 0 333.5 83.5t229.5 232t82 333.5 q0 184 -83 331.5t-230.5 230.5t-331.5 83q-185 0 -333.5 -82t-232 -229.5t-83.5 -333.5zM532 305v881h379q69 0 121.5 -11t96.5 -37t67 -75.5t23 -120.5q0 -120 -74 -179t-199 -67l262 -391h-127l-247 391h-189v-391h-113zM645 799h234q39 0 65 2t57.5 10t50 22.5t31.5 42.5 t13 68q0 45 -17.5 74.5t-51 43t-64.5 17.5t-76 4h-242v-284z" />
<glyph unicode="&#xb0;" horiz-adv-x="800" d="M119 1104q0 122 84.5 206.5t206.5 84.5q120 0 205 -85.5t85 -205.5t-85 -206.5t-205 -86.5q-121 0 -206 85.5t-85 207.5zM205 1104q0 -88 58.5 -146.5t146.5 -58.5q89 0 146.5 58t57.5 147t-59 146t-147 57t-145.5 -57.5t-57.5 -145.5z" />
<glyph unicode="&#xc1;" horiz-adv-x="1366" d="M18 0l586 1479h156l590 -1479h-146l-157 399h-736l-155 -399h-138zM354 522h645l-319 834zM578 1606l186 292h164l-260 -292h-90z" />
<glyph unicode="&#xc2;" horiz-adv-x="1366" d="M18 0l586 1479h156l590 -1479h-146l-157 399h-736l-155 -399h-138zM354 522h645l-319 834zM406 1602l204 296h150l203 -296h-97l-182 217l-184 -217h-94z" />
<glyph unicode="&#xc4;" horiz-adv-x="1366" d="M18 0l586 1479h156l590 -1479h-146l-157 399h-736l-155 -399h-138zM354 522h645l-319 834zM430 1718v180h152v-180h-152zM786 1718v180h152v-180h-152z" />
<glyph unicode="&#xc5;" horiz-adv-x="1366" d="M18 0l586 1479h156l590 -1479h-146l-157 399h-736l-155 -399h-138zM354 522h645l-319 834zM504 1780q0 72 54 126t126 54q74 0 127 -53t53 -127q0 -72 -54 -126.5t-126 -54.5t-126 54.5t-54 126.5zM571 1780q0 -43 35 -78t78 -35q41 0 77 36t36 77q0 43 -35 77.5 t-78 34.5q-44 0 -78.5 -34t-34.5 -78z" />
<glyph unicode="&#xc7;" horiz-adv-x="1366" d="M125 739q0 123 23 234.5t73 210t123.5 170.5t180.5 113.5t237 41.5q74 0 141.5 -13.5t129 -43t108 -73t76.5 -106.5t36 -140h-143q-18 126 -115.5 189.5t-232.5 63.5q-107 0 -192.5 -37t-141 -99t-92.5 -146.5t-52.5 -175t-15.5 -189.5t15.5 -189.5t52.5 -175 t92.5 -146.5t141 -99t192.5 -37q134 0 236.5 69.5t127.5 196.5h144q-21 -119 -97.5 -209t-183.5 -135t-227 -45l-19 2l-10 -80q197 23 197 -131q0 -67 -57 -102t-134 -33q-98 2 -231 45l14 58q122 -52 183 -52q110 0 110 88q0 37 -30.5 58.5t-67.5 15.5h-43l22 137 q-120 10 -217 57t-162 119t-109 168.5t-63.5 200.5t-19.5 219z" />
<glyph unicode="&#xc8;" horiz-adv-x="1251" d="M209 0v1479h878v-123h-745v-531h717v-123h-717v-579h776v-123h-909zM383 1898h164l186 -292h-90z" />
<glyph unicode="&#xc9;" horiz-adv-x="1251" d="M209 0v1479h878v-123h-745v-531h717v-123h-717v-579h776v-123h-909zM520 1606l187 292h163l-260 -292h-90z" />
<glyph unicode="&#xca;" horiz-adv-x="1251" d="M209 0v1479h878v-123h-745v-531h717v-123h-717v-579h776v-123h-909zM348 1602l205 296h149l203 -296h-96l-182 217l-185 -217h-94z" />
<glyph unicode="&#xcb;" horiz-adv-x="1251" d="M209 0v1479h878v-123h-745v-531h717v-123h-717v-579h776v-123h-909zM373 1718v180h151v-180h-151zM729 1718v180h152v-180h-152z" />
<glyph unicode="&#xcc;" horiz-adv-x="569" d="M41 1898h164l186 -292h-90zM219 0v1485h133v-1485h-133z" />
<glyph unicode="&#xcd;" horiz-adv-x="569" d="M178 1606l187 292h163l-260 -292h-90zM219 0v1485h133v-1485h-133z" />
<glyph unicode="&#xce;" horiz-adv-x="569" d="M6 1602l205 296h149l203 -296h-96l-182 217l-185 -217h-94zM219 0v1485h133v-1485h-133z" />
<glyph unicode="&#xcf;" horiz-adv-x="569" d="M31 1718v180h151v-180h-151zM219 0v1485h133v-1485h-133zM387 1718v180h152v-180h-152z" />
<glyph unicode="&#xd1;" horiz-adv-x="1472" d="M184 0v1479h152l815 -1301h4v1301h133v-1479h-168l-798 1278h-5v-1278h-133zM455 1683q16 76 62.5 121t121.5 45q35 0 100.5 -21.5t98.5 -21.5q75 0 102 68h78q-19 -75 -67 -124.5t-120 -49.5q-35 0 -100 21.5t-102 21.5q-81 0 -97 -60h-77z" />
<glyph unicode="&#xd2;" horiz-adv-x="1593" d="M137 739q0 231 76 404t226 269.5t358 96.5t358 -96.5t225.5 -269.5t75.5 -404t-75.5 -404t-225.5 -269.5t-358 -96.5t-358 96.5t-226 269.5t-76 404zM281 739q0 -100 18 -192t58 -175.5t98.5 -145t146.5 -98t195 -36.5t195 36.5t146.5 98t98.5 145t58 175.5t18 192 t-18 192t-58 175.5t-98.5 145t-146.5 98t-195 36.5t-195 -36.5t-146.5 -98t-98.5 -145t-58 -175.5t-18 -192zM553 1898h164l186 -292h-90z" />
<glyph unicode="&#xd3;" horiz-adv-x="1593" d="M133 739q0 127 24.5 240.5t76.5 211t128.5 168t186.5 110.5t244 40q133 0 243 -40.5t186 -111t128.5 -168t77 -210.5t24.5 -240t-24.5 -240t-77 -210.5t-128.5 -168t-186 -111t-243 -40.5q-134 0 -244 40t-186.5 110.5t-128.5 168t-76.5 211t-24.5 240.5zM276 733 q0 -98 19 -189.5t60 -174t100 -144t146 -97.5t192 -36q108 0 196.5 37.5t147 100t98 148t57 178.5t17.5 194q0 123 -31 234.5t-91.5 202.5t-162 145t-231.5 54q-108 0 -196 -37t-146.5 -99t-98.5 -146.5t-58 -177t-18 -193.5zM690 1606l187 292h163l-260 -292h-90z" />
<glyph unicode="&#xd4;" horiz-adv-x="1593" d="M133 739q0 127 24.5 240.5t76.5 211t128.5 168t186.5 110.5t244 40q133 0 243 -40.5t186 -111t128.5 -168t77 -210.5t24.5 -240t-24.5 -240t-77 -210.5t-128.5 -168t-186 -111t-243 -40.5q-134 0 -244 40t-186.5 110.5t-128.5 168t-76.5 211t-24.5 240.5zM276 733 q0 -98 19 -189.5t60 -174t100 -144t146 -97.5t192 -36q108 0 196.5 37.5t147 100t98 148t57 178.5t17.5 194q0 123 -31 234.5t-91.5 202.5t-162 145t-231.5 54q-108 0 -196 -37t-146.5 -99t-98.5 -146.5t-58 -177t-18 -193.5zM518 1602l205 296h149l203 -296h-96l-182 217 l-185 -217h-94z" />
<glyph unicode="&#xd6;" horiz-adv-x="1593" d="M133 739q0 127 24.5 240.5t76.5 211t128.5 168t186.5 110.5t244 40q133 0 243 -40.5t186 -111t128.5 -168t77 -210.5t24.5 -240t-24.5 -240t-77 -210.5t-128.5 -168t-186 -111t-243 -40.5q-134 0 -244 40t-186.5 110.5t-128.5 168t-76.5 211t-24.5 240.5zM276 733 q0 -98 19 -189.5t60 -174t100 -144t146 -97.5t192 -36q108 0 196.5 37.5t147 100t98 148t57 178.5t17.5 194q0 123 -31 234.5t-91.5 202.5t-162 145t-231.5 54q-108 0 -196 -37t-146.5 -99t-98.5 -146.5t-58 -177t-18 -193.5zM543 1718v180h151v-180h-151zM899 1718v180h152 v-180h-152z" />
<glyph unicode="&#xd7;" horiz-adv-x="1292" d="M141 18l488 482l-488 485l47 47l490 -483l485 483l47 -47l-485 -485l485 -482l-47 -47l-485 484l-490 -484z" />
<glyph unicode="&#xd8;" horiz-adv-x="1593" d="M111 25l172 192q-146 193 -146 522q0 127 24.5 240.5t77 211t129 168t186.5 110.5t243 40q135 0 257 -47t210 -141l168 188l55 -51l-174 -198q143 -202 143 -521q0 -127 -24.5 -240.5t-77 -211t-128.5 -168t-186 -110.5t-243 -40q-135 0 -255 46.5t-208 140.5l-164 -187z M281 739q0 -252 100 -411l788 886q-66 84 -163.5 128t-208.5 44q-107 0 -194.5 -36.5t-146 -98t-99 -145t-58.5 -175.5t-18 -192zM428 260q66 -83 162.5 -125.5t206.5 -42.5q107 0 194.5 36.5t146 98t99 145t58.5 175.5t18 192q0 241 -99 410z" />
<glyph unicode="&#xd9;" horiz-adv-x="1478" d="M199 520v959h133v-957q0 -192 108.5 -311t298.5 -119t299 119t109 311v957h133v-959q0 -252 -144.5 -401.5t-396.5 -149.5t-396 149.5t-144 401.5zM496 1898h163l187 -292h-90z" />
<glyph unicode="&#xda;" horiz-adv-x="1478" d="M205 520v959h133v-957q0 -190 109.5 -310t297.5 -120t298 120t110 310v957h133v-959q0 -252 -144.5 -401.5t-396.5 -149.5t-396 149.5t-144 401.5zM633 1606l186 292h164l-260 -292h-90z" />
<glyph unicode="&#xdb;" horiz-adv-x="1478" d="M199 520v959h133v-957q0 -192 108.5 -311t298.5 -119t299 119t109 311v957h133v-959q0 -252 -144.5 -401.5t-396.5 -149.5t-396 149.5t-144 401.5zM461 1602l205 296h149l203 -296h-96l-183 217l-184 -217h-94z" />
<glyph unicode="&#xdc;" horiz-adv-x="1478" d="M205 520v959h133v-957q0 -190 109.5 -310t297.5 -120t298 120t110 310v957h133v-959q0 -252 -144.5 -401.5t-396.5 -149.5t-396 149.5t-144 401.5zM485 1718v180h152v-180h-152zM842 1718v180h151v-180h-151z" />
<glyph unicode="&#xe0;" horiz-adv-x="1024" d="M74 287q0 76 28 133t75 89t108.5 53.5t129.5 26.5t137.5 9t132.5 0h60q1 51 -0.5 84t-6.5 73.5t-15.5 65.5t-30 51.5t-47 41t-68.5 23.5t-94 9q-115 0 -184.5 -66t-69.5 -169h-131q0 156 113 252t274 96q191 0 287 -89.5t96 -250.5v-719h-120v152h-5 q-37 -88 -130.5 -135.5t-196.5 -47.5q-147 0 -244.5 86.5t-97.5 231.5zM207 287q0 -97 59 -151t150 -54q76 0 150.5 27.5t126.5 83.5t52 126v166h-90q-7 0 -39 0.5t-50.5 0.5t-55.5 -2t-61 -5t-59 -10t-58 -16.5t-48.5 -25t-41 -35t-25.5 -46.5t-10 -59zM406 1155l186 293 h164l-260 -293h-90z" />
<glyph unicode="&#xe1;" horiz-adv-x="1024" d="M74 287q0 76 28 133t75 89t108.5 53.5t129.5 26.5t137.5 9t132.5 0h60q1 51 -0.5 84t-6.5 73.5t-15.5 65.5t-30 51.5t-47 41t-68.5 23.5t-94 9q-115 0 -184.5 -66t-69.5 -169h-131q0 156 113 252t274 96q191 0 287 -89.5t96 -250.5v-719h-120v152h-5 q-37 -88 -130.5 -135.5t-196.5 -47.5q-147 0 -244.5 86.5t-97.5 231.5zM207 287q0 -97 59 -151t150 -54q76 0 150.5 27.5t126.5 83.5t52 126v166h-90q-7 0 -39 0.5t-50.5 0.5t-55.5 -2t-61 -5t-59 -10t-58 -16.5t-48.5 -25t-41 -35t-25.5 -46.5t-10 -59zM268 1448h164 l186 -293h-90z" />
<glyph unicode="&#xe2;" horiz-adv-x="1024" d="M74 287q0 76 28 133t75 89t108.5 53.5t129.5 26.5t137.5 9t132.5 0h60q1 51 -0.5 84t-6.5 73.5t-15.5 65.5t-30 51.5t-47 41t-68.5 23.5t-94 9q-115 0 -184.5 -66t-69.5 -169h-131q0 156 113 252t274 96q191 0 287 -89.5t96 -250.5v-719h-120v152h-5 q-37 -88 -130.5 -135.5t-196.5 -47.5q-147 0 -244.5 86.5t-97.5 231.5zM207 287q0 -97 59 -151t150 -54q76 0 150.5 27.5t126.5 83.5t52 126v166h-90q-7 0 -39 0.5t-50.5 0.5t-55.5 -2t-61 -5t-59 -10t-58 -16.5t-48.5 -25t-41 -35t-25.5 -46.5t-10 -59zM233 1151l205 297 h150l203 -297h-97l-182 217l-184 -217h-95z" />
<glyph unicode="&#xe3;" horiz-adv-x="1024" d="M74 287q0 76 28 133t75 89t108.5 53.5t129.5 26.5t137.5 9t132.5 0h60q1 51 -0.5 84t-6.5 73.5t-15.5 65.5t-30 51.5t-47 41t-68.5 23.5t-94 9q-115 0 -184.5 -66t-69.5 -169h-131q0 156 113 252t274 96q191 0 287 -89.5t96 -250.5v-719h-120v152h-5 q-37 -88 -130.5 -135.5t-196.5 -47.5q-147 0 -244.5 86.5t-97.5 231.5zM207 287q0 -97 59 -151t150 -54q76 0 150.5 27.5t126.5 83.5t52 126v166h-90q-7 0 -39 0.5t-50.5 0.5t-55.5 -2t-61 -5t-59 -10t-58 -16.5t-48.5 -25t-41 -35t-25.5 -46.5t-10 -59zM258 1268v180h152 v-180h-152zM614 1268v180h152v-180h-152z" />
<glyph unicode="&#xe4;" horiz-adv-x="1024" d="M74 287q0 76 28 133t75 89t108.5 53.5t129.5 26.5t137.5 9t132.5 0h60q1 51 -0.5 84t-6.5 73.5t-15.5 65.5t-30 51.5t-47 41t-68.5 23.5t-94 9q-115 0 -184.5 -66t-69.5 -169h-131q0 156 113 252t274 96q191 0 287 -89.5t96 -250.5v-719h-120v152h-5 q-37 -88 -130.5 -135.5t-196.5 -47.5q-147 0 -244.5 86.5t-97.5 231.5zM207 287q0 -97 59 -151t150 -54q76 0 150.5 27.5t126.5 83.5t52 126v166h-90q-7 0 -39 0.5t-50.5 0.5t-55.5 -2t-61 -5t-59 -10t-58 -16.5t-48.5 -25t-41 -35t-25.5 -46.5t-10 -59zM231 1233 q19 86 77 131.5t145 32.5q16 -2 82 -23q70 -18 79 -18q35 0 63 18t40 49h78q-19 -76 -66.5 -125t-120.5 -49q-29 0 -92 23q-62 20 -110 20q-34 0 -62 -15t-35 -44h-78z" />
<glyph unicode="&#xe5;" horiz-adv-x="1024" d="M74 287q0 76 28 133t75 89t108.5 53.5t129.5 26.5t137.5 9t132.5 0h60q1 51 -0.5 84t-6.5 73.5t-15.5 65.5t-30 51.5t-47 41t-68.5 23.5t-94 9q-115 0 -184.5 -66t-69.5 -169h-131q0 156 113 252t274 96q191 0 287 -89.5t96 -250.5v-719h-120v152h-5 q-37 -88 -130.5 -135.5t-196.5 -47.5q-147 0 -244.5 86.5t-97.5 231.5zM207 287q0 -97 59 -151t150 -54q76 0 150.5 27.5t126.5 83.5t52 126v166h-90q-7 0 -39 0.5t-50.5 0.5t-55.5 -2t-61 -5t-59 -10t-58 -16.5t-48.5 -25t-41 -35t-25.5 -46.5t-10 -59zM332 1329 q0 73 54 126.5t126 53.5q74 0 127 -53.5t53 -126.5q0 -72 -53.5 -126t-126.5 -54q-72 0 -126 54t-54 126zM399 1329q0 -41 35.5 -76.5t77.5 -35.5q41 0 77 35.5t36 76.5q0 43 -35 78t-78 35t-78 -34.5t-35 -78.5z" />
<glyph unicode="&#xe7;" horiz-adv-x="1024" d="M90 532q0 44 12.5 104.5t46 136t81.5 138t129 105.5t180 43q79 0 143.5 -19t105.5 -49t72 -66.5t46 -73t24.5 -66.5t11.5 -49l2 -19l-137 -2q0 9 -1 25t-13.5 56t-35.5 71t-74.5 56t-123.5 25q-73 0 -132.5 -28.5t-96.5 -73t-62 -101t-35 -109t-10 -101.5 q0 -42 5.5 -86.5t18 -98t37 -99.5t58.5 -85t87 -61.5t118 -22.5q56 0 100 13.5t71 34.5t46 47t27.5 52t13 47t4.5 34v14q45 -2 133 -2q0 -63 -24.5 -124t-70.5 -113t-122.5 -84t-169.5 -32v-73q4 1 11 1.5t27 0t38 -3.5t40.5 -12t38.5 -22.5t27 -38.5t11 -57 q0 -66 -44.5 -100t-108 -36t-126.5 6t-107 21l-45 13q15 29 19 56q34 -16 82 -26.5t94.5 -11.5t79.5 17t33 55q0 29 -15.5 47t-37.5 22.5t-44 4.5t-38 -3l-15 -3q15 77 19 147q-75 9 -137 36.5t-103 65t-72 87.5t-48 97t-27.5 101t-13.5 93t-3 79z" />
<glyph unicode="&#xe8;" horiz-adv-x="1146" d="M98 500q0 103 31.5 201.5t89 179t147.5 129.5t197 49q102 0 182.5 -30.5t133.5 -82.5t88 -126t50 -156.5t15 -178.5h-794q2 -87 20 -157.5t56.5 -127t104.5 -87.5t156 -31q110 0 200.5 70t115.5 176h129q-45 -174 -156.5 -266.5t-288.5 -92.5q-146 0 -256 74.5 t-165.5 194t-55.5 262.5zM242 598h657q-11 157 -96 252.5t-238 95.5q-141 0 -225.5 -100.5t-97.5 -247.5zM465 1155l186 293h164l-260 -293h-90z" />
<glyph unicode="&#xe9;" horiz-adv-x="1146" d="M98 500q0 103 31.5 201.5t89 179t147.5 129.5t197 49q102 0 182.5 -30.5t133.5 -82.5t88 -126t50 -156.5t15 -178.5h-794q2 -87 20 -157.5t56.5 -127t104.5 -87.5t156 -31q110 0 200.5 70t115.5 176h129q-45 -174 -156.5 -266.5t-288.5 -92.5q-146 0 -256 74.5 t-165.5 194t-55.5 262.5zM242 598h657q-11 157 -96 252.5t-238 95.5q-141 0 -225.5 -100.5t-97.5 -247.5zM328 1448h164l186 -293h-90z" />
<glyph unicode="&#xea;" horiz-adv-x="1146" d="M98 500q0 103 31.5 201.5t89 179t147.5 129.5t197 49q102 0 182.5 -30.5t133.5 -82.5t88 -126t50 -156.5t15 -178.5h-794q2 -87 20 -157.5t56.5 -127t104.5 -87.5t156 -31q110 0 200.5 70t115.5 176h129q-45 -174 -156.5 -266.5t-288.5 -92.5q-146 0 -256 74.5 t-165.5 194t-55.5 262.5zM242 598h657q-11 157 -96 252.5t-238 95.5q-141 0 -225.5 -100.5t-97.5 -247.5zM293 1151l205 297h149l203 -297h-96l-183 217l-184 -217h-94z" />
<glyph unicode="&#xeb;" horiz-adv-x="1146" d="M98 500q0 103 31.5 201.5t89 179t147.5 129.5t197 49q102 0 182.5 -30.5t133.5 -82.5t88 -126t50 -156.5t15 -178.5h-794q2 -87 20 -157.5t56.5 -127t104.5 -87.5t156 -31q110 0 200.5 70t115.5 176h129q-45 -174 -156.5 -266.5t-288.5 -92.5q-146 0 -256 74.5 t-165.5 194t-55.5 262.5zM242 598h657q-11 157 -96 252.5t-238 95.5q-141 0 -225.5 -100.5t-97.5 -247.5zM317 1268v180h152v-180h-152zM674 1268v180h151v-180h-151z" />
<glyph unicode="&#xec;" horiz-adv-x="454" d="M-16 1448h163l187 -293h-90zM166 0v1028h123v-1028h-123z" />
<glyph unicode="&#xed;" horiz-adv-x="454" d="M121 1155l186 293h164l-260 -293h-90zM166 0v1028h123v-1028h-123z" />
<glyph unicode="&#xee;" horiz-adv-x="454" d="M-51 1151l205 297h149l203 -297h-96l-183 217l-184 -217h-94zM166 0v1028h123v-1028h-123z" />
<glyph unicode="&#xef;" horiz-adv-x="454" d="M-27 1268v180h152v-180h-152zM166 0v1028h123v-1028h-123zM330 1268v180h151v-180h-151z" />
<glyph unicode="&#xf1;" horiz-adv-x="1128" d="M154 0v1028h122v-156h5q106 187 321 187q85 0 149.5 -25t104.5 -67t65 -103.5t34.5 -126.5t9.5 -145v-592h-123v592q0 61 -4 106t-18.5 94.5t-39.5 81t-70 52t-108 20.5q-145 0 -235.5 -103.5t-90.5 -250.5v-592h-122zM279 1233q16 76 62.5 121t121.5 45q35 0 101 -21.5 t98 -21.5q75 0 102 67h78q-19 -75 -67 -124.5t-120 -49.5q-35 0 -100 21.5t-102 21.5q-81 0 -97 -59h-77z" />
<glyph unicode="&#xf2;" horiz-adv-x="1138" d="M90 514q0 83 18 160.5t56.5 148t94 122.5t135.5 83t175 31t175.5 -31t135.5 -83t94 -122.5t57 -148t18 -160.5t-18 -160.5t-57 -148t-94 -122.5t-135.5 -83t-175.5 -31t-175 31t-135.5 83t-94 122.5t-56.5 148t-18 160.5zM223 514q0 -59 12 -118t39 -116t66 -100.5 t98 -70.5t131 -27t131 27t98 70.5t66 100.5t39 116t12 118t-12 118t-39 116t-66 100.5t-98 70.5t-131 27t-131 -27t-98 -70.5t-66 -100.5t-39 -116t-12 -118zM326 1448h163l187 -293h-90z" />
<glyph unicode="&#xf3;" horiz-adv-x="1138" d="M90 514q0 83 18 160.5t56.5 148t94 122.5t135.5 83t175 31t175.5 -31t135.5 -83t94 -122.5t57 -148t18 -160.5t-18 -160.5t-57 -148t-94 -122.5t-135.5 -83t-175.5 -31t-175 31t-135.5 83t-94 122.5t-56.5 148t-18 160.5zM223 514q0 -59 12 -118t39 -116t66 -100.5 t98 -70.5t131 -27t131 27t98 70.5t66 100.5t39 116t12 118t-12 118t-39 116t-66 100.5t-98 70.5t-131 27t-131 -27t-98 -70.5t-66 -100.5t-39 -116t-12 -118zM463 1155l186 293h164l-260 -293h-90z" />
<glyph unicode="&#xf4;" horiz-adv-x="1138" d="M90 514q0 83 18 160.5t56.5 148t94 122.5t135.5 83t175 31t175.5 -31t135.5 -83t94 -122.5t57 -148t18 -160.5t-18 -160.5t-57 -148t-94 -122.5t-135.5 -83t-175.5 -31t-175 31t-135.5 83t-94 122.5t-56.5 148t-18 160.5zM223 514q0 -59 12 -118t39 -116t66 -100.5 t98 -70.5t131 -27t131 27t98 70.5t66 100.5t39 116t12 118t-12 118t-39 116t-66 100.5t-98 70.5t-131 27t-131 -27t-98 -70.5t-66 -100.5t-39 -116t-12 -118zM291 1151l205 297h149l203 -297h-96l-183 217l-184 -217h-94z" />
<glyph unicode="&#xf5;" horiz-adv-x="1138" d="M90 514q0 83 18 160.5t56.5 148t94 122.5t135.5 83t175 31t175.5 -31t135.5 -83t94 -122.5t57 -148t18 -160.5t-18 -160.5t-57 -148t-94 -122.5t-135.5 -83t-175.5 -31t-175 31t-135.5 83t-94 122.5t-56.5 148t-18 160.5zM223 514q0 -59 12 -118t39 -116t66 -100.5 t98 -70.5t131 -27t131 27t98 70.5t66 100.5t39 116t12 118t-12 118t-39 116t-66 100.5t-98 70.5t-131 27t-131 -27t-98 -70.5t-66 -100.5t-39 -116t-12 -118zM289 1233q19 86 76.5 131.5t144.5 32.5q16 -2 82 -23q70 -18 80 -18q35 0 62.5 17.5t39.5 49.5h78 q-19 -76 -66 -125t-120 -49q-30 0 -93 23q-62 20 -110 20q-34 0 -61.5 -15t-34.5 -44h-78z" />
<glyph unicode="&#xf6;" horiz-adv-x="1138" d="M90 514q0 83 18 160.5t56.5 148t94 122.5t135.5 83t175 31t175.5 -31t135.5 -83t94 -122.5t57 -148t18 -160.5t-18 -160.5t-57 -148t-94 -122.5t-135.5 -83t-175.5 -31t-175 31t-135.5 83t-94 122.5t-56.5 148t-18 160.5zM223 514q0 -59 12 -118t39 -116t66 -100.5 t98 -70.5t131 -27t131 27t98 70.5t66 100.5t39 116t12 118t-12 118t-39 116t-66 100.5t-98 70.5t-131 27t-131 -27t-98 -70.5t-66 -100.5t-39 -116t-12 -118zM315 1268v180h152v-180h-152zM672 1268v180h151v-180h-151z" />
<glyph unicode="&#xf9;" horiz-adv-x="1138" d="M164 365v663h123v-663q0 -121 60.5 -202t178.5 -81q93 0 165 29.5t116.5 94.5t44.5 159v663h123v-1028h-123v156h-4q-51 -91 -134.5 -139t-187.5 -48q-174 0 -268 109.5t-94 286.5zM326 1448h163l187 -293h-90z" />
<glyph unicode="&#xfa;" horiz-adv-x="1138" d="M164 365v663h123v-663q0 -121 60.5 -202t178.5 -81q93 0 165 29.5t116.5 94.5t44.5 159v663h123v-1028h-123v156h-4q-51 -91 -134.5 -139t-187.5 -48q-174 0 -268 109.5t-94 286.5zM463 1155l186 293h164l-260 -293h-90z" />
<glyph unicode="&#xfb;" horiz-adv-x="1138" d="M164 365v663h123v-663q0 -121 60.5 -202t178.5 -81q93 0 165 29.5t116.5 94.5t44.5 159v663h123v-1028h-123v156h-4q-51 -91 -134.5 -139t-187.5 -48q-174 0 -268 109.5t-94 286.5zM291 1151l205 297h149l203 -297h-96l-183 217l-184 -217h-94z" />
<glyph unicode="&#xfc;" horiz-adv-x="1138" d="M164 365v663h123v-663q0 -121 60.5 -202t178.5 -81q93 0 165 29.5t116.5 94.5t44.5 159v663h123v-1028h-123v156h-4q-51 -91 -134.5 -139t-187.5 -48q-174 0 -268 109.5t-94 286.5zM315 1268v180h152v-180h-152zM672 1268v180h151v-180h-151z" />
<glyph unicode="&#x2000;" horiz-adv-x="980" />
<glyph unicode="&#x2001;" horiz-adv-x="1960" />
<glyph unicode="&#x2002;" horiz-adv-x="980" />
<glyph unicode="&#x2003;" horiz-adv-x="1960" />
<glyph unicode="&#x2004;" horiz-adv-x="653" />
<glyph unicode="&#x2005;" horiz-adv-x="490" />
<glyph unicode="&#x2006;" horiz-adv-x="326" />
<glyph unicode="&#x2007;" horiz-adv-x="326" />
<glyph unicode="&#x2008;" horiz-adv-x="245" />
<glyph unicode="&#x2009;" horiz-adv-x="392" />
<glyph unicode="&#x200a;" horiz-adv-x="108" />
<glyph unicode="&#x2010;" horiz-adv-x="659" d="M51 682v74h467v-74h-467z" />
<glyph unicode="&#x2011;" horiz-adv-x="659" d="M51 682v74h467v-74h-467z" />
<glyph unicode="&#x2012;" horiz-adv-x="659" d="M51 682v74h467v-74h-467z" />
<glyph unicode="&#x2013;" horiz-adv-x="1216" d="M51 682v74h1024v-74h-1024z" />
<glyph unicode="&#x2014;" horiz-adv-x="2088" d="M86 471v66h1876v-66h-1876z" />
<glyph unicode="&#x202f;" horiz-adv-x="392" />
<glyph unicode="&#x205f;" horiz-adv-x="490" />
<glyph unicode="&#x2122;" horiz-adv-x="1925" d="M59 1397v82h656v-82h-271v-781h-112v781h-273zM868 616v863h203l246 -637h4l242 637h202v-863h-112v773h-4l-297 -773h-70l-297 773h-4v-773h-113z" />
<glyph unicode="&#x25fc;" horiz-adv-x="1024" d="M0 0v1024h1024v-1024h-1024z" />
</font>
</defs>
</svg>
